:SAMPLES-PER-SECOND 30
:FULLY-SPECIFIED
:DEGREES
384
root  -15.2273 40.8512 -12.4629 133.196 -87.2437 -135.402
RightUpLeg  1.72619 -7.97423 -2.31183
RightLeg  5.14554 -9.24559 4.28544
RightFoot  -3.21839 0.103058 -1.76176
RightToes  0.00048216 0.542163 -0.142577
Spine  -10.0524 -0.860644 0.997926
Spine1  22.0708 -2.10274 3.60748
HEad  -13.2849 -7.93666 -3.76779
LeftShoulder1  9.46156 -13.3521 -49.0068
LeftArm  -17.1729 25.2274 -24.3774
LeftForeArm  58.0039 -71.2518 -26.6744
LeftHand  -0.25398 0.0180481 5.50724
RightShoulder  5.60421 9.14786 38.2431
RightArm  1.57325 -20.8447 29.5601
RightForeArm  5.51209 76.7664 68.5535
RightHand  -3.94894 7.69784 -34.3673
LeftUpLeg  5.46193 7.97652 12.3775
LeftLeg  4.13628 7.21696 -0.643114
LeftFoot  -4.59528 0.447086 -7.12122
LeftToes  1.06246e-005 4.65855e-005 -8.18503e-006
385
root  -15.2308 40.8684 -12.2571 122.725 -87.9846 -125.215
RightUpLeg  2.1482 -8.33894 -3.06655
RightLeg  5.14198 -9.52796 4.24677
RightFoot  -3.23001 0.0751587 -1.34218
RightToes  0.00048216 0.542163 -0.142577
Spine  -10.2491 -0.792852 1.24995
Spine1  22.0411 -1.68258 2.65235
HEad  -12.6005 -9.08561 -4.31393
LeftShoulder1  9.31378 -13.2738 -48.4615
LeftArm  -16.5679 23.5605 -23.6139
LeftForeArm  65.2769 -71.6512 -26.2227
LeftHand  -0.25398 0.0180481 5.50724
RightShoulder  5.53893 9.13476 37.7891
RightArm  2.43013 -20.4232 29.7264
RightForeArm  6.95193 76.4611 64.2393
RightHand  -2.37633 3.34368 -31.1487
LeftUpLeg  5.56118 7.58984 11.6856
LeftLeg  4.10338 6.90702 -0.628143
LeftFoot  -4.59657 0.421811 -6.73547
LeftToes  1.06246e-005 4.65855e-005 -8.18503e-006
386
root  -15.2161 40.8844 -12.0204 103.946 -88.5802 -106.72
RightUpLeg  2.54745 -8.7239 -3.89625
RightLeg  5.13515 -9.70731 4.19365
RightFoot  -3.15123 0.0473374 -0.923404
RightToes  0.00048216 0.542163 -0.142577
Spine  -10.2395 -0.560003 1.89738
Spine1  21.9427 -0.955291 1.26593
HEad  -12.0134 -10.2005 -4.53947
LeftShoulder1  9.06133 -13.1177 -47.5818
LeftArm  -16.7532 22.1158 -23.6801
LeftForeArm  65.0357 -71.9632 -26.8929
LeftHand  -0.25398 0.0180481 5.50724
RightShoulder  5.41598 8.98333 37.3526
RightArm  2.27566 -20.4802 30.6058
RightForeArm  9.90736 76.3558 62.2387
RightHand  -1.32365 -0.0603887 -28.5355
LeftUpLeg  5.61906 7.25775 10.9454
LeftLeg  4.17222 6.63032 -0.658946
LeftFoot  -4.64686 0.395105 -6.3093
LeftToes  1.06246e-005 4.65855e-005 -8.18503e-006
387
root  -15.1865 40.9011 -11.7511 64.147 -88.7923 -67.1554
RightUpLeg  2.95959 -9.07073 -4.70114
RightLeg  4.99039 -10.1395 4.13014
RightFoot  -2.85136 0.0192948 -0.503548
RightToes  0.00048216 0.542163 -0.142577
Spine  -10.1437 -0.32092 2.6054
Spine1  21.8662 -0.280823 0.00283779
HEad  -11.6249 -11.363 -4.4538
LeftShoulder1  8.95743 -13.0547 -47.208
LeftArm  -17.3687 21.0652 -23.8252
LeftForeArm  60.4666 -72.4219 -28.7031
LeftHand  -0.25398 0.0180481 5.50724
RightShoulder  5.35637 8.86261 37.2956
RightArm  1.59894 -20.8181 31.3185
RightForeArm  14.3197 76.4947 62.3232
RightHand  -0.888727 -1.65847 -27.2149
LeftUpLeg  5.50991 6.9736 10.2178
LeftLeg  4.36208 6.18233 -0.697925
LeftFoot  -4.70183 0.367493 -5.8454
LeftToes  1.06246e-005 4.65855e-005 -8.18503e-006
388
root  -15.1366 40.918 -11.4457 26.7174 -88.3386 -29.8997
RightUpLeg  3.18571 -9.45477 -5.55967
RightLeg  5.03154 -10.5738 4.05765
RightFoot  -2.47758 -0.00457942 -0.153559
RightToes  0.00048216 0.542163 -0.142577
Spine  -10.0258 -0.173744 2.98071
Spine1  21.8576 0.113084 -0.712357
HEad  -11.5428 -12.2848 -4.19242
LeftShoulder1  8.99151 -13.0167 -47.5017
LeftArm  -18.3103 20.3491 -24.0541
LeftForeArm  56.846 -73.1052 -31.1108
LeftHand  -0.25398 0.0180481 5.50724
RightShoulder  5.38141 8.89357 37.3862
RightArm  0.937668 -20.8976 31.7857
RightForeArm  18.283 76.4788 60.6778
RightHand  -0.642023 -2.59333 -25.9795
LeftUpLeg  5.29841 6.71973 9.46201
LeftLeg  4.56234 5.66894 -0.798822
LeftFoot  -4.61341 0.3415 -5.33803
LeftToes  1.06246e-005 4.65855e-005 -8.18503e-006
